<svg xmlns="http://www.w3.org/2000/svg" viewBox="0 0 500 500"><g id="freepik--background-complete--inject-37"><g><g><g><path d="M443.92039,315.4928h-180.7461c-3.2324,0-5.86229-2.6298-5.86229-5.8623V46.3571c0-3.2324,2.62989-5.8618,5.86229-5.8618h180.7461c3.2324,0,5.8623,2.6294,5.8623,5.8618V309.6305c0,3.2325-2.6299,5.8623-5.8623,5.8623ZM263.17429,40.7453c-3.0947,0-5.61229,2.5176-5.61229,5.6118V309.6305c0,3.0948,2.51759,5.6123,5.61229,5.6123h180.7461c3.0947,0,5.6123-2.5175,5.6123-5.6123V46.3571c0-3.0942-2.5176-5.6118-5.6123-5.6118h-180.7461Z" style="fill:#e0e0e0;"></path><path d="M235.49269,315.4928H54.7461c-3.2324,0-5.8618-2.6298-5.8618-5.8623V46.3571c0-3.2324,2.6294-5.8618,5.8618-5.8618H235.49269c3.2324,0,5.86231,2.6294,5.86231,5.8618V309.6305c0,3.2325-2.62991,5.8623-5.86231,5.8623ZM54.7461,40.7453c-3.0942,0-5.6118,2.5176-5.6118,5.6118V309.6305c0,3.0948,2.5176,5.6123,5.6118,5.6123H235.49269c3.0947,0,5.61231-2.5175,5.61231-5.6123V46.3571c0-3.0942-2.51761-5.6118-5.61231-5.6118H54.7461Z" style="fill:#e0e0e0;"></path></g><rect x="0" y="376.5622" width="500" height=".25" style="fill:#e0e0e0;"></rect></g><rect x="51.6724" y="390.8268" width="16.06" height=".25" style="fill:#e0e0e0;"></rect><rect x="170.3524" y="388.1167" width="53.53" height=".25" style="fill:#e0e0e0;"></rect><rect x="68.7324" y="400.1167" width="36.25" height=".25" style="fill:#e0e0e0;"></rect><rect x="378.35239" y="387.9867" width="43.19" height=".25" style="fill:#e0e0e0;"></rect><rect x="430.45239" y="387.9867" width="6.33" height=".25" style="fill:#e0e0e0;"></rect><rect x="316.21239" y="394.2167" width="53.89" height=".25" style="fill:#e0e0e0;"></rect></g><g><rect x="187.49" y="239.6941" width="32.50289" height="13.4967" style="fill:#e6e6e6;"></rect><rect x="203.74149" y="253.1908" width="32.5028" height="13.4966" style="fill:#f5f5f5;"></rect></g><rect x="227.97559" y="27.2487" width="32.5028" height="13.4966" style="fill:#f5f5f5;"></rect><g><rect x="36.569" y="266.0551" width="32.5029" height="13.4967" style="fill:#e6e6e6;"></rect><rect x="52.8205" y="279.5518" width="32.5028" height="13.4966" style="fill:#f5f5f5;"></rect></g><g><rect x="409.02089" y="222.9484" width="32.5029" height="13.4967" style="fill:#e6e6e6;"></rect><rect x="425.27239" y="236.4451" width="32.5028" height="13.4966" style="fill:#f5f5f5;"></rect></g><g><rect x="26.9808" y="102.6721" width="32.5029" height="13.4967" style="fill:#e6e6e6;"></rect><rect x="43.2323" y="116.1688" width="32.5028" height="13.4966" style="fill:#f5f5f5;"></rect></g><rect x="411.47919" y="75.2887" width="32.50281" height="13.4966" style="fill:#f5f5f5;"></rect><rect x="87.3699" y="58.6807" width="32.5028" height="13.4966" style="fill:#f5f5f5;"></rect><rect x="276.42769" y="282.1687" width="32.5029" height="13.4967" style="fill:#e6e6e6;"></rect><g><g><rect x="153.3238" y="58.4735" width="41.2534" height="77.7717" style="fill:#e0e0e0;"></rect><rect x="144.0942" y="58.4735" width="48.4586" height="77.7717" style="fill:#ebebeb;"></rect><rect x="151.4595" y="65.3814" width="33.705" height="63.9558" style="fill:#fff;"></rect></g><path d="M144.0942,58.4735c.5962,0,7.3653,6.9079,7.3653,6.9079h33.705l7.3883-6.9079h-48.4586Z" style="fill:#e0e0e0;"></path><path d="M192.5528,136.2449c-.5962,0-7.3653-6.9077-7.3653-6.9077h-33.7049l-7.3884,6.9077h48.4586Z" style="fill:#e0e0e0;"></path><rect x="162.9846" y="82.037" width="11.995" height="18.9574" style="fill:#e0e0e0;"></rect></g><g><g><rect x="310.411" y="54.0424" width="41.25329" height="77.7717" style="fill:#e0e0e0;"></rect><rect x="301.18129" y="54.0424" width="48.4586" height="77.7717" style="fill:#ebebeb;"></rect><rect x="308.54669" y="60.9503" width="33.7049" height="63.9558" style="fill:#fff;"></rect></g><path d="M301.18129,54.0424c.5962,0,7.3654,6.9079,7.3654,6.9079h33.7049l7.3883-6.9079h-48.4586Z" style="fill:#e0e0e0;"></path><path d="M349.63989,131.8139c-.5962,0-7.3653-6.9078-7.3653-6.9078h-33.7049l-7.3884,6.9078h48.4586Z" style="fill:#e0e0e0;"></path><rect x="320.07169" y="77.6059" width="11.995" height="18.9574" style="fill:#e0e0e0;"></rect></g><g><g><rect x="223.199" y="70.2707" width="63.06139" height="118.8847" style="fill:#e0e0e0;"></rect><rect x="209.09019" y="70.2707" width="74.0756" height="118.8847" style="fill:#ebebeb;"></rect><rect x="220.34909" y="80.8303" width="51.5226" height="97.7652" style="fill:#fff;"></rect></g><path d="M209.09019,70.2707c.9114,0,11.2589,10.5596,11.2589,10.5596h51.5226l11.2941-10.5596h-74.0756Z" style="fill:#e0e0e0;"></path><path d="M283.16579,189.155c-.9114,0-11.2589-10.5595-11.2589-10.5595h-51.5226l-11.2941,10.5595h74.0756Z" style="fill:#e0e0e0;"></path><rect x="237.96679" y="106.2908" width="18.3359" height="28.9789" style="fill:#e0e0e0;"></rect></g></g><g id="freepik--Shadow--inject-37"><path d="M445.21669,443.5687c0,3.228-89.1351,5.8449-199.08869,5.8449s-199.0887-2.6169-199.0887-5.8449,89.135-5.845,199.0887-5.845,199.08869,2.6169,199.08869,5.845Z" style="fill:#f5f5f5;"></path></g><g id="freepik--Plant--inject-37"><g><g><g><path d="M251.24339,409.3523c-.018-.5624-1.9102-56.4089-10.9941-65.242-8.8352-8.5889-18.9756-.3195-19.402,.036l-.9108-1.0915c.1149-.0969,11.5587-9.4384,21.3041,.0362,9.4919,9.2303,11.349,63.894,11.4232,66.2166l-1.4204,.0447Z" style="fill:#263238;"></path><path d="M252.023,420.3275c-.06521-.6676-6.20821-67.044,18.03229-94.8638l1.0718,.9329c-23.8387,27.359-17.753,93.1315-17.6894,93.7922l-1.41469,.1387Z" style="fill:#263238;"></path><path d="M251.12689,413.3064l-1.419-.0946c.05-.7523,4.7444-75.4607-13.0366-91.8148l.9621-1.0469c18.2794,16.8139,13.6974,89.8548,13.4935,92.9563Z" style="fill:#263238;"></path><path d="M253.44139,413.2648l-1.4219-.0113c.01751-2.0576,.5866-50.4622,14.3362-58.3413,3.0567-1.7535,6.0495-2.0451,8.8964-.8679,8.31391,3.4392,12.434,18.2357,12.6054,18.8633l-1.3716,.3749c-.0404-.1475-4.1083-14.7536-11.7788-17.9248-2.4177-.998-4.9892-.7344-7.6445,.7872-13.0472,7.4767-13.6172,56.6244-13.6212,57.1199Z" style="fill:#263238;"></path><path d="M248.08679,413.2995l-1.41879-.0804c.02149-.3822,2.07429-38.2512-8.146-51.594-2.47631-3.2322-5.16441-4.7733-8.00421-4.5747-6.6964,.4679-12.31179,10.2671-12.3675,10.3661l-1.2384-.6999c.2438-.4305,6.0453-10.5618,13.5044-11.0838,3.3372-.2374,6.4479,1.491,9.2345,5.1288,10.541,13.7607,8.5269,50.962,8.436,52.5379Z" style="fill:#263238;"></path><path d="M250.32779,418.4506c-.2782-3.674-6.681-90.1422,4.5845-105.3786l1.14271,.8439c-10.95391,14.8161-4.37691,103.5321-4.30971,104.4262l-1.4175,.1085Z" style="fill:#263238;"></path></g><path d="M280.35559,358.8189s-7.18959,2.6567-4.749,8.3735c6.8771,16.1081,23.26941,17.8249,23.26941,17.8249,0,0,7.69179-12.1767,1.38709-21.6339-8.6925-13.0387-19.7247-8.774-19.9075-4.5645Z" style="fill:#263238;"></path><path d="M248.93559,351.6106s7.1967-.3014,7.6058,5.901c.4089,6.2023-15.591,23.3616-15.591,23.3616,0,0-11.4179-4.1278-8.96539-19.6055,2.45239-15.4774,15.16209-13.4723,16.95059-9.6571Z" style="fill:#263238;"></path><path d="M252.42479,315.4654s-3.0225-.3718-4.1593-3.0919c-3.3907-8.1138,8.2614-16.8628,23.8407-12.2401,0,0,.4126,13.7094-7.971,19.1168-8.3838,5.4072-11.7104-3.7848-11.7104-3.7848Z" style="fill:#263238;"></path><path d="M225.72659,357.9813s2.5077-3.4387-1.2819-3.7758c-3.78969-.337-20.1941,7.014-15.8804,23.8408,0,0,21.0998-6.8821,21.8316-13.9271,.7317-7.045-4.6693-6.1379-4.6693-6.1379Z" style="fill:#263238;"></path><path d="M270.712,321.4853s.94779-3.1223,4.52149-4.4274c3.57351-1.3051,16.84951-.4859,17.0323,16.884,0,0-20.4229,3.3943-22.9506-3.2223-2.5279-6.6164,1.39681-9.2343,1.39681-9.2343Z" style="fill:#263238;"></path><path d="M259.68839,335.9193s1.3728-2.3811,3.9968-1.1069c2.624,1.2738,10.36,9.2338,2.9831,18.8425,0,0-13.70729-8.2415-12.587-14.0258,1.0325-5.3313,5.6071-3.7098,5.6071-3.7098Z" style="fill:#263238;"></path><path d="M226.10579,340.109s1.9796-2.594-.9193-2.9155c-2.8993-.3214-15.8914,3.1465-12.8657,16.1161,0,0,15.8279-1.1895,16.5064-6.5772,.6783-5.3878-2.7214-6.6234-2.7214-6.6234Z" style="fill:#263238;"></path><path d="M239.53613,375.40625c-.12256,0-.22949-.08984-.24707-.21484-1.13281-8.05664,2.67676-17.6084,9.47852-23.7666,.10303-.09082,.26025-.08496,.35352,.01758,.09229,.10254,.08447,.26074-.01758,.35352-6.68506,6.05176-10.42969,15.42578-9.31934,23.3252,.01904,.13672-.07617,.26367-.21289,.2832-.01172,.00098-.02344,.00195-.03516,.00195Z" style="opacity:.3;"></path><path d="M266.13965,348.65918c-.11719,0-.22168-.08203-.24512-.20117-.88965-4.45996-3.15625-8.68164-6.38184-11.88574-.09863-.09766-.09863-.25586-.00195-.35352,.09668-.09863,.25586-.09863,.35352-.00195,3.2959,3.27441,5.61133,7.58691,6.52051,12.14355,.02734,.13574-.06055,.2666-.19629,.29395-.0166,.00293-.0332,.00488-.04883,.00488Z" style="opacity:.3;"></path><path d="M296.15137,374.52148c-.09277,0-.18164-.05176-.22461-.14062-3.16016-6.49121-9.3125-12.50977-15.67285-15.33301-.12598-.05566-.18262-.2041-.12695-.33008s.2041-.18262,.33008-.12695c6.46191,2.86816,12.71094,8.98047,15.91895,15.57129,.06055,.12402,.00879,.27344-.11523,.33398-.03516,.01758-.07227,.02539-.10938,.02539Z" style="opacity:.3;"></path><path d="M288.45312,329.625c-.08301,0-.16406-.04102-.21191-.11621-1.85059-2.93555-4.65625-5.2334-7.89844-6.4707-3.4375-1.31055-6.3252-2.24023-9.56152-1.3125-.13672,.03906-.27246-.03906-.30957-.1709-.03809-.13281,.03906-.27148,.1709-.30957,3.38281-.97168,6.34863-.01855,9.87793,1.32617,3.34277,1.27539,6.23535,3.64453,8.14453,6.66992,.07324,.11719,.03809,.27148-.07812,.3457-.04199,.02539-.08789,.03809-.13379,.03809Z" style="opacity:.3;"></path><path d="M242.06709,324.4118s4.7917,.572,5.0694-2.3627c.278-2.9348-15.8402-14.3555-29.0666-4.9136,0,0,4.0717,13.0973,13.759,15.4814,9.6869,2.3846,10.2382-8.2051,10.2382-8.2051Z" style="fill:#263238;"></path><path d="M241.91895,324.90137c-.07617,0-.15137-.03516-.20068-.10059-4.83984-6.50586-17.11279-8.8916-21.33594-7.36133-.12744,.04492-.27295-.02051-.31982-.15039-.04736-.12988,.02002-.27344,.1499-.32031,4.28076-1.5498,16.76025,.61523,21.90723,7.5332,.08252,.11133,.05908,.26758-.05127,.34961-.04492,.03418-.09717,.0498-.14941,.0498Z" style="opacity:.3;"></path><path d="M215.46436,348.50391c-.04443,0-.08936-.01172-.12988-.03613-.11816-.07227-.15527-.22559-.0835-.34375,2.71436-4.45508,8.00195-6.93359,10.9126-8.01465,.12793-.04785,.27344,.01855,.32129,.14746s-.01807,.27344-.14746,.32129c-2.84961,1.05859-8.02344,3.48047-10.65967,7.80566-.04688,.07715-.12939,.12012-.21338,.12012Z" style="opacity:.3;"></path><path d="M210.81934,371.90918c-.03906,0-.07861-.00879-.11572-.02832-.12207-.06348-.16992-.21484-.10596-.33691,3.21777-6.1709,8.73584-11.27148,15.13965-13.99414,.12549-.0498,.27295,.00488,.32764,.13281,.0542,.12695-.00488,.27344-.13232,.32812-6.29834,2.67676-11.72656,7.69434-14.8916,13.76367-.04443,.08594-.13184,.13477-.22168,.13477Z" style="opacity:.3;"></path><path d="M253.05957,315.38867c-.03613,0-.07129-.00781-.10645-.02344-.125-.05859-.17871-.20801-.12012-.33301,2.58594-5.52148,7.59863-9.91699,13.40918-11.75977,.12793-.03906,.27148,.03125,.31348,.16309,.04199,.13086-.03125,.27148-.16309,.31348-5.67969,1.80078-10.5791,6.09863-13.10645,11.49609-.04297,.08984-.13281,.14355-.22656,.14355Z" style="opacity:.3;"></path></g><g><polygon points="269.589 438.5507 234.78149 438.5507 231.02629 400.4416 273.34409 400.4416 269.589 438.5507" style="fill:#263238;"></polygon><polygon points="269.589 438.5507 234.78149 438.5507 231.02629 400.4416 273.34409 400.4416 269.589 438.5507" style="opacity:.3;"></polygon><rect x="229.168" y="396.237" width="46.03439" height="8.4091" style="fill:#263238;"></rect><polygon points="231.53429 404.5344 232.03749 410.1557 272.498 410.1557 273.05189 404.5344 231.53429 404.5344" style="opacity:.3;"></polygon></g><rect x="229.168" y="396.237" width="46.03439" height="8.4091" style="opacity:.3;"></rect></g></g><g id="freepik--Speech_Bubble_2--inject-37"><g><g><path d="M284.00219,173.0746h22.642c5.8062,0,10.5132,4.7066,10.5132,10.513v12.6876c0,5.8061-4.707,10.5132-10.5131,10.5132h-5.15l-.8227,5.8627-6.2488-5.8627h-10.42079c-5.80591,0-10.51271-4.7071-10.51271-10.5132v-12.6876c0-5.8064,4.7068-10.513,10.5129-10.513Z" style="fill:#263238;"></path><g style="opacity:.5;"><path d="M284.00219,173.0746h22.642c5.8062,0,10.5132,4.7066,10.5132,10.513v12.6876c0,5.8061-4.707,10.5132-10.5131,10.5132h-5.15l-.8227,5.8627-6.2488-5.8627h-10.42079c-5.80591,0-10.51271-4.7071-10.51271-10.5132v-12.6876c0-5.8064,4.7068-10.513,10.5129-10.513Z" style="fill:#fff;"></path></g><g><path d="M288.872,189.2487c0,1.4945-1.21151,2.7061-2.70631,2.7061-1.4945,0-2.706-1.2116-2.706-2.7061,0-1.4948,1.2115-2.7062,2.706-2.7062,1.4948,0,2.70631,1.2114,2.70631,2.7062Z" style="fill:#fff;"></path><path d="M298.09139,189.2487c0,1.4945-1.2117,2.7061-2.7062,2.7061-1.4944,0-2.7061-1.2116-2.7061-2.7061,0-1.4948,1.2117-2.7062,2.7061-2.7062,1.4945,0,2.7062,1.2114,2.7062,2.7062Z" style="fill:#fff;"></path><path d="M307.55429,189.2487c0,1.4945-1.2115,2.7061-2.7062,2.7061-1.4946,0-2.70609-1.2116-2.70609-2.7061,0-1.4948,1.21149-2.7062,2.70609-2.7062,1.4947,0,2.7062,1.2114,2.7062,2.7062Z" style="fill:#fff;"></path></g></g><path d="M283.41769,171.758h14.3614c.48259,0,.48339-.75,0-.75h-14.3614c-.48259,0-.48339,.75,0,.75h0Z" style="fill:#263238;"></path><path d="M299.58029,171.758h1.2031c.19615,0,.38407-.17248,.375-.375-.0091-.20318-.16477-.375-.375-.375h-1.2031c-.19615,0-.38407,.17248-.375,.375,.0091,.20318,.16477,.375,.375,.375h0Z" style="fill:#263238;"></path></g></g><g id="freepik--Speech_Bubble_1--inject-37"><g><g><path d="M213.12829,172.4189h-22.642c-5.8062,0-10.5132,4.7067-10.5132,10.513v12.6877c0,5.8061,4.707,10.5131,10.5131,10.5131h5.15l.8227,5.8627,6.2488-5.8627h10.4208c5.8059,0,10.5126-4.707,10.5126-10.5131v-12.6877c0-5.8063-4.7067-10.513-10.5128-10.513Z" style="fill:#263238;"></path><g style="opacity:.5;"><path d="M213.12829,172.4189h-22.642c-5.8062,0-10.5132,4.7067-10.5132,10.513v12.6877c0,5.8061,4.707,10.5131,10.5131,10.5131h5.15l.8227,5.8627,6.2488-5.8627h10.4208c5.8059,0,10.5126-4.707,10.5126-10.5131v-12.6877c0-5.8063-4.7067-10.513-10.5128-10.513Z" style="fill:#fff;"></path></g><g><path d="M208.27219,187.6015c-.6975,2.3115,1.6105,4.3761,3.9434,3.2108,.4319-.2157,.7913-.5751,1.007-1.0071,1.1646-2.3324-.89859-4.6399-3.2099-3.9436-.8432,.2541-1.4861,.8968-1.7405,1.7399Z" style="fill:#fff;"></path><path d="M199.26249,187.077c-1.2548,2.5077,1.227,4.9894,3.7349,3.7345,.43161-.216,.79061-.5754,1.0061-1.0072,1.25151-2.5076-1.2283-4.986-3.7348-3.7332-.4314,.2156-.7904,.5746-1.0062,1.0059Z" style="fill:#fff;"></path><path d="M189.7997,187.0765c-1.2551,2.5078,1.2263,4.9899,3.7347,3.7351,.4317-.216,.7908-.5754,1.0063-1.0072,1.2513-2.5073-1.2275-4.9854-3.7342-3.7338-.4316,.2155-.7908,.5745-1.0068,1.0059Z" style="fill:#fff;"></path></g></g><path d="M213.71279,170.3524h-14.3614c-.48259,0-.48339,.75,0,.75h14.3614c.48259,0,.48339-.75,0-.75h0Z" style="fill:#263238;"></path><path d="M197.5502,170.3524h-1.2031c-.19615,0-.38407,.17248-.375,.375,.0091,.20318,.16477,.375,.375,.375h1.2031c.19615,0,.38407-.17248,.375-.375-.0091-.20318-.16477-.375-.375-.375h0Z" style="fill:#263238;"></path></g></g><g id="freepik--Blow_dryer_2--inject-37"><g><g><rect x="422.33689" y="139.6356" width="10.7873" height="290.8024" transform="translate(855.46108 570.0736) rotate(180)" style="fill:#263238;"></rect><rect x="422.33689" y="139.6356" width="10.7873" height="290.8024" transform="translate(855.46108 570.0736) rotate(180)" style="fill:#fff; opacity:.2;"></rect><path d="M463.69459,434.3323h-71.0842c0-3.5987,2.9173-6.516,6.516-6.516h58.0521c3.5987,0,6.5161,2.9173,6.5161,6.516h0Z" style="fill:#263238;"></path><path d="M463.69459,434.3323h-71.0842c0-3.5987,2.9173-6.516,6.516-6.516h58.0521c3.5987,0,6.5161,2.9173,6.5161,6.516h0Z" style="fill:#fff; opacity:.2;"></path><circle cx="401.25979" cy="436.1813" r="5.7433" style="fill:#263238;"></circle><circle cx="427.65469" cy="436.1813" r="5.7433" style="fill:#263238;"></circle><circle cx="454.04959" cy="436.1813" r="5.7433" style="fill:#263238;"></circle></g><path d="M412.04329,108.018c1.2202,.832,26.6309,12.5222,21.20371,47.001-5.42721,34.4788-15.66021,47.1964-15.66021,47.1964l-89.188-44.3056s10.6701-34.4963,39.4024-47.5855c28.7323-13.0891,44.2421-2.3063,44.2421-2.3063Z" style="fill:#263238;"></path><path d="M412.04329,108.018c1.2202,.832,26.6309,12.5222,21.20371,47.001-5.42721,34.4788-15.66021,47.1964-15.66021,47.1964l-89.188-44.3056s10.6701-34.4963,39.4024-47.5855c28.7323-13.0891,44.2421-2.3063,44.2421-2.3063Z" style="fill:#fff; opacity:.3;"></path><ellipse cx="373.28202" cy="179.5748" rx="30.81197" ry="49.88987" transform="translate(58.58487 448.9301) rotate(-66.25166)" style="fill:#263238;"></ellipse><g style="opacity:.2;"><ellipse cx="373.28202" cy="179.5748" rx="30.81197" ry="49.88987" transform="translate(58.58487 448.9301) rotate(-66.25166)" style="fill:#fff;"></ellipse></g><ellipse cx="373.28199" cy="180.54955" rx="25.77347" ry="44.86109" transform="translate(57.69241 449.512) rotate(-66.25161)" style="opacity:.3;"></ellipse></g></g><g id="freepik--Blow_dryer_1--inject-37"><g><g><rect x="64.6103" y="138.5443" width="10.7873" height="290.8025" style="fill:#263238;"></rect><rect x="64.6103" y="138.5443" width="10.7873" height="290.8025" style="fill:#fff; opacity:.2;"></rect><path d="M34.0399,433.2411H105.1241c0-3.5988-2.9173-6.5161-6.516-6.5161H40.556c-3.5987,0-6.5161,2.9173-6.5161,6.5161h0Z" style="fill:#263238;"></path><path d="M34.0399,433.2411H105.1241c0-3.5988-2.9173-6.5161-6.516-6.5161H40.556c-3.5987,0-6.5161,2.9173-6.5161,6.5161h0Z" style="fill:#fff; opacity:.2;"></path><path d="M90.7314,435.0901c0,3.1719,2.5713,5.7432,5.7433,5.7432s5.7433-2.5713,5.7433-5.7432-2.5714-5.7433-5.7433-5.7433-5.7433,2.5713-5.7433,5.7433Z" style="fill:#263238;"></path><path d="M64.3365,435.0901c0,3.1719,2.5713,5.7432,5.7433,5.7432s5.7433-2.5713,5.7433-5.7432-2.5714-5.7433-5.7433-5.7433-5.7433,2.5713-5.7433,5.7433Z" style="fill:#263238;"></path><path d="M37.9416,435.0901c0,3.1719,2.5713,5.7432,5.7433,5.7432s5.7433-2.5713,5.7433-5.7432-2.5714-5.7433-5.7433-5.7433-5.7433,2.5713-5.7433,5.7433Z" style="fill:#263238;"></path></g><path d="M85.6912,106.9268c-1.2202,.832-26.6309,12.5222-21.2037,47.001,5.4272,34.4787,15.6602,47.1963,15.6602,47.1963l89.188-44.3055s-10.6701-34.4964-39.4024-47.5855c-28.7323-13.0892-44.2421-2.3063-44.2421-2.3063Z" style="fill:#263238;"></path><path d="M85.6912,106.9268c-1.2202,.832-26.6309,12.5222-21.2037,47.001,5.4272,34.4787,15.6602,47.1963,15.6602,47.1963l89.188-44.3055s-10.6701-34.4964-39.4024-47.5855c-28.7323-13.0892-44.2421-2.3063-44.2421-2.3063Z" style="fill:#fff; opacity:.3;"></path><ellipse cx="124.45247" cy="178.48352" rx="49.8899" ry="30.81195" transform="translate(-61.34075 65.23307) rotate(-23.74838)" style="fill:#263238;"></ellipse><g style="opacity:.2;"><ellipse cx="124.45247" cy="178.48352" rx="49.8899" ry="30.81195" transform="translate(-61.34075 65.23307) rotate(-23.74838)" style="fill:#fff;"></ellipse></g><ellipse cx="124.4525" cy="179.4583" rx="44.86107" ry="25.77351" transform="translate(-61.73309 65.31526) rotate(-23.74827)" style="opacity:.3;"></ellipse></g></g><g id="freepik--Character_2--inject-37"><g><g><g><rect x="360.94169" y="354.8356" width="9.4886" height="86.3386" style="fill:#263238;"></rect><rect x="360.94169" y="354.8356" width="9.4886" height="86.3386" style="fill:#fff; opacity:.1;"></rect><path d="M345.42,354.3048c.99349,.7893,13.85579,16.4995,13.85579,16.4995h12.64421l15.11119-16.6801-41.61119,.1806Z" style="fill:#263238;"></path><path d="M345.42,354.3048c.99349,.7893,13.85579,16.4995,13.85579,16.4995h12.64421l15.11119-16.6801-41.61119,.1806Z" style="fill:#fff; opacity:.2;"></path><g><path d="M336.77259,436.8674h57.8268c2.24403,0,4.0659,1.82187,4.0659,4.0659v.2409h-65.9586v-.2409c0-2.24403,1.82187-4.0659,4.0659-4.0659Z" style="fill:#263238;"></path><path d="M336.77259,436.8674h57.8268c2.24403,0,4.0659,1.82187,4.0659,4.0659v.2409h-65.9586v-.2409c0-2.24403,1.82187-4.0659,4.0659-4.0659Z" style="fill:#fff; opacity:.1;"></path></g></g><g><path d="M421.70639,312.9164c-2.421-14.6244-6.178-28.9813-11.196-42.7849-4.1502-11.4164-9.4073-22.8041-18.0248-30.6432-7.0315-6.3963-21.58659-12.0993-32.1101-10.9264-10.52349-1.1729-25.0786,4.5301-32.11,10.9264-8.61749,7.8391-13.8746,19.2268-18.0248,30.6432-5.0181,13.8036-8.775,28.1605-11.196,42.7849-1.5481,9.3511-2.3872,19.693,2.2432,27.7208,3.8609,6.6933,10.8103,10.4225,17.6814,12.8275,13.3304,4.6661,27.3432,6.4687,41.4062,6.0724,14.063,.3963,28.0759-1.4063,41.4063-6.0724,6.87121-2.405,13.8206-6.1342,17.6814-12.8275,4.6303-8.0278,3.7913-18.3697,2.2432-27.7208Z" style="fill:#263238;"></path><g style="opacity:.5;"><path d="M421.70639,312.9164c-2.421-14.6244-6.178-28.9813-11.196-42.7849-4.1502-11.4164-9.4073-22.8041-18.0248-30.6432-7.0315-6.3963-21.58659-12.0993-32.1101-10.9264-10.52349-1.1729-25.0786,4.5301-32.11,10.9264-8.61749,7.8391-13.8746,19.2268-18.0248,30.6432-5.0181,13.8036-8.775,28.1605-11.196,42.7849-1.5481,9.3511-2.3872,19.693,2.2432,27.7208,3.8609,6.6933,10.8103,10.4225,17.6814,12.8275,13.3304,4.6661,27.3432,6.4687,41.4062,6.0724,14.063,.3963,28.0759-1.4063,41.4063-6.0724,6.87121-2.405,13.8206-6.1342,17.6814-12.8275,4.6303-8.0278,3.7913-18.3697,2.2432-27.7208Z" style="fill:#fff;"></path></g><g style="opacity:.5;"><path d="M359.31649,320.3516c16.027,.575,31.6061,.3298,47.6331,.9048,2.7741,.0995,5.8027,.2983,7.849,2.1739,2.0185,1.8499,2.5059,4.9599,1.7826,7.6006s-2.468,4.8826-4.37519,6.847c-5.82611,6.0009-13.46021,10.0402-21.45951,12.4825-7.9994,2.4423-16.38749,3.3601-24.7416,3.7638-16.2048,.7831-33.0947-.495-47.334-8.2699-2.9078-1.5877-5.7177-3.4699-7.8323-6.0203-2.1147-2.5504-5.3827-8.7675-5.0799-12.0667,0,0-1.7852-8.6439,7.1411-8.2358,8.9263,.4081,46.4167,.8201,46.4167,.8201Z" style="fill:#fff;"></path></g></g></g><g><path d="M338.88689,287.4029c-1.3215,.2643-20.7768,27.1576-19.191,42.4871s22.4657,19.2941,22.4657,19.2941l42.5025-2.3397s17.4941-4.6171,16.4368-19.772c-1.0572-15.1549-16.7322-38.0393-16.7322-38.0393l-45.4818-1.6302Z" style="fill:#263238;"></path><path d="M368.35589,223.2606l1.992,.2927c5.3134,.7807,12.5672,1.1996,16.6082,5.1625l-6.5596,26.9754c.6376,6.5518-.57849,25.3309,6.5596,34.7642-16.9877,4.4973-34.6759,4.7358-53.0856,.5896,1.6487-4.8149,6.4526-5.6183,3.626-14.5238-.725-2.2841-1.5613-5.3154-2.3481-8.358-1.9827-7.6666-2.2267-15.6793-.72339-23.454l1.07679-15.5064c.8293-4.289,5.5983-5.1553,9.892-5.9599,3.1144-.5836,5.6897-.5286,5.6897-.5286l17.2724,.5463" style="fill:#263238;"></path></g><path d="M298.77809,263.0164s37.9105-36.9648,38.3731-36.4932,8.3867,13.8456,8.3867,13.8456l-35.0895,30.9551-11.6703-8.3075Z" style="fill:#263238;"></path><g><path d="M340.40439,176.0696s.2269-12.3774,17.5817-12.8433,31.9471,13.5019,25.04591,30.1854c-2.456,5.9373-10.45581,10.1418-13.84771,11.8793-3.3918,1.7376-6.6557-1.8911-6.6557-1.8911l-22.1242-27.3303Z" style="fill:#263238;"></path><g><g><path d="M366.50619,200.2228l-10.6909,10.7896-2.9996,1.8011c.6712,1.5908,1.2454,3.2289,1.4911,4.8156,.4685,2.7987-.564,3.3098-3.1616,5.3775l10.6073,6.3409c5.3873-4.6425,8.8014-5.7244,8.8014-5.7244-5.6314-3.9107-5.2705-16.7847-4.0477-23.4003Z" style="fill:#b97964;"></path><path d="M354.39379,218.2438c2.9403-1.7457,6.1666-4.773,5.7797-8.2322-.1724-1.4563-.4864-2.8366-.8353-3.7212l-5.9723,7.9071c.4902,1.2745,.6692,2.117,1.0279,4.0463Z" style="opacity:.2;"></path><path d="M368.57729,188.0586c-1.0064,10.9847-1.2005,15.643-6.869,21.4028-8.52629,8.6639-21.6438,5.7494-23.9021-5.1388-2.0327-9.7997-.0455-26.117,10.7384-30.7334,10.6245-4.5483,21.0387,3.4846,20.0327,14.4694Z" style="fill:#b97964;"></path><path d="M354.34949,191.6347c-.054,1.1622-.68349,2.1164-1.406,2.1314-.7222,.0149-1.2639-.9151-1.2097-2.0771,.0538-1.1622,.6833-2.1166,1.4055-2.1316,.7223-.015,1.264,.9149,1.2102,2.0773Z" style="fill:#263238;"></path><path d="M343.51669,191.6018c-.0549,1.1264-.6829,2.0515-1.4032,2.0666-.7201,.0148-1.25949-.8858-1.205-2.0124,.0547-1.1259,.6829-2.0513,1.4029-2.0662,.7203-.0153,1.2599,.8858,1.2053,2.012Z" style="fill:#263238;"></path><path d="M356.64149,187.5865c-.1399,.0156-.2819-.0253-.3904-.1255-1.6923-1.5668-3.5978-1.0165-3.6198-1.0101-.2825,.0822-.5682-.0775-.6329-.3658-.0638-.2876,.1153-.5899,.4015-.6767,.0996-.0293,2.491-.7224,4.5907,1.2231,.2092,.1936,.2135,.537,.0097,.7663-.0987,.1101-.2276,.1741-.3588,.1887Z" style="fill:#263238;"></path><path d="M339.87329,186.0894c-.1106-.037-.2028-.1194-.2512-.2399-.10009-.2489,.0222-.5649,.2725-.7056,2.5107-1.4112,4.3719-.3383,4.4502-.2908,.221,.1311,.2741,.4431,.1187,.697-.1547,.2536-.4594,.3524-.6802,.2226-.0722-.0432-1.5295-.8509-3.5257,.2718-.1293,.0725-.2673,.0843-.3843,.0449Z" style="fill:#263238;"></path><path d="M346.46339,191.0662s-1.71839,4.112-3.6573,6.675c-.3387,.4481-.129,1.1019,.3981,1.2958,1.3565,.4993,2.9439,.0475,2.9439,.0475l.3153-8.0183Z" style="fill:#a24e3f;"></path><path d="M353.55289,189.6053l-2.521-.5956s1.3788,1.8802,2.521,.5956Z" style="fill:#263238;"></path><path d="M342.57089,189.6156l-2.521-.5956s1.3786,1.88,2.521,.5956Z" style="fill:#263238;"></path><path d="M348.43989,201.2847c.7419,1.3441,1.38511,2.7402,1.92411,4.1777l.80389-.1714c3.5847-.7643,4.9948-2.3063,5.4825-3.7823,.2125-.723,.2532-1.4857,.11861-2.2272-.06541-.4279-.18951-.8448-.369-1.2388-1.67371,1.5549-4.95531,2.5171-6.73451,2.9652-.7511,.1976-1.2256,.2768-1.2256,.2768Z"></path><path d="M349.66549,201.0079l.5932,1.2125c3.3868-.7249,5.667-1.6868,6.5104-2.9389-.0655-.4279-.1896-.8448-.36909-1.2388-1.67371,1.5551-4.95531,2.4644-6.73451,2.9652Z" style="fill:#fff;"></path><path d="M351.168,205.291c3.58479-.7643,4.99469-2.3062,5.48239-3.7822-1.3611,.3195-2.655,.8772-3.8218,1.6473-.7669,.5164-1.3489,1.2644-1.66059,2.1349Z" style="fill:#de5753;"></path></g><path d="M337.63389,190.4093s4.3593-13.4567,12.7918-15.5271c.3791-.093,5.6186,11.9689,10.7339,14.3153,0,0,1.1502,8.3963,2.8345,8.9806,1.6841,.5844,5.9204-8.5884,5.9204-8.5884,0,0,6.9264-15.1412-2.801-19.2502-9.72749-4.1091-19.8494-3.6903-25.8798,4.5427-6.0304,8.2329-4.4246,13.2629-3.5998,15.5271Z" style="fill:#263238;"></path><path d="M371.58979,197.0112c-1.2977,2.2527-3.406,3.6676-5.3391,4.1525-2.9076,.729-4.4091-3.9459-3.41669-6.8588,.89369-2.6226,3.75079-4.3582,6.58049-3.7865,2.7876,.5634,3.6586,3.9169,2.1753,6.4928Z" style="fill:#b97964;"></path><path d="M365.75586,196.67578l-.0166-.00049c-.1377-.00928-.24219-.12842-.23242-.26611,.07324-1.11084,.59668-2.16943,1.43359-2.90479,.86035-.75391,2.34766-1.08594,3.06641-1.04443,.1377,.00879,.24316,.12793,.2334,.26562-.00781,.13721-.12305,.24805-.26465,.2334-.62109-.0415-1.95605,.26367-2.70508,.92139-.73926,.64844-1.2002,1.58203-1.26562,2.56201-.00879,.13232-.11816,.2334-.24902,.2334Z" style="opacity:.2;"></path></g><path d="M340.40439,176.0696s3.1161-5.2145,10.76361-4.7791c10.09389,.5746,14.02149,20.0577,14.02149,20.0577,1.746-.8442,3.3978-1.2838,4.8019-.659,0,0,5.5991-6.2646,3.9684-14.1849-1.6306-7.9203-10.6133-8.9686-14.3335-9.551-3.7201-.5824-17.1359-.1705-19.2219,9.1163Z" style="fill:#263238;"></path><path d="M371.06249,166.5321s1.8017,15.7828,0,25.0651c0,0,4.7699-15.1269,0-25.0651Z" style="opacity:.3;"></path></g><g><path d="M316.45469,389.9973s21.994-73.2207,32.5734-84.9137c10.5795-11.6931,25.335-.2784,32.5735,16.7043,7.2385,16.9827,3.0625,25.0565,3.0625,25.0565l-13.9203,1.1136-8.3522-14.4771-36.137,60.7163-9.7999-4.1999Z" style="fill:#b97964;"></path><path d="M353.20419,413.9505s-1.1639-39.7923-3.4143-58.7676c-.1843-1.5541-4.1866,8.1495-4.3297,6.7455-.4678-4.5876-.5213-8.2551-.5275-10.29-.0542-17.7225,6.59531-27.5854,13.2828-27.5882,12.5283-.0051,12.5283,20.494,12.5283,20.494l-7.5229,69.4063h-10.0167Z" style="opacity:.3;"></path><path d="M353.20419,418.673s-6.9601-60.1756-6.1249-70.5958,4.44871-20.9968,11.1362-20.9996c12.5283-.0052,12.5283,20.8804,12.5283,20.8804l-7.4252,70.715h-10.1144Z" style="fill:#b97964;"></path><g><path d="M295.39269,408.214c1.8378-.5448,3.81831-.7934,5.845-.7337h0s6.9236-2.7934,13.6551-15.4016l7.8031,.6382c2.6666,.2737,5.04111,1.8762,5.97,4.0293,.1273,.3028,.2069,.6138,.2364,.9246-.0676,1.5245-.248,3.0333-.5405,4.5182-1.0892,5.0225-2.5436,9.953-4.3555,14.7655l-1.38229-.39,2.29649-9.3986c.8918-3.1608-3.3701-.3981-5.2433,2.7146-1.8731,3.1128-4.82319,6.2647-13.4245,3.8379-9.9059-2.7569-13.9752-4.2863-10.86-5.5044Z" style="fill:#263238;"></path><path d="M317.65719,387.6544s-3.4014,5.6745-8.04019,11.705c-2.10731,3.1867-4.98161,5.9349-8.46721,8.0961,0,0,6.1453,2.8204,9.9691,.1817,3.824-2.6384,11.2093-13.3653,17.52711-10.8203-.24131-1.0185-.62591-2.023-1.14571-2.9921-.6996-1.551-9.8431-6.1704-9.8431-6.1704Z" style="fill:#b97964;"></path></g><g><path d="M338.05139,439.2932c1.5493-.9782,3.3069-1.721,5.1869-2.1922h0s5.64471-4.3671,8.5649-17.7139l7.3445-1.4382c2.52431-.4405,5.1248,.4175,6.53831,2.1573,.19569,.2454,.34969,.511,.45739,.7892,.33361,1.4201,.5592,2.855,.67561,4.297,.30159,4.9034,.24339,9.817-.17441,14.7148h-1.3729l-.3268-9.2428c0-3.1394-3.20389,.5086-4.1192,3.8585-.9153,3.3499-2.8113,7.0154-11.3544,7.0154-9.829,.035-13.9697-.3158-11.4199-2.2451Z" style="fill:#263238;"></path><path d="M353.198,414.5992s-1.65631,6.1034-4.35871,12.8556c-1.1115,3.4787-3.0425,6.7532-5.6882,9.6462,0,0,6.3856,.9997,9.2187-2.4205,2.83321-3.4199,6.8433-15.2057,13.31621-14.5041-.48641-.8744-1.10091-1.6987-1.83071-2.4554-1.0462-1.2453-10.65729-3.1218-10.65729-3.1218Z" style="fill:#b97964;"></path></g></g><path d="M410.54549,278.7245l-17.9976-42.5962c-2.5076-5.9347-7.8603-10.2401-14.2222-11.2574-.7494-.1198-1.2826-.1578-1.46-.0698-3.6798,1.825,0,14.3623,0,14.3623l19.652,42.4653,14.0278-2.9042Z" style="fill:#263238;"></path><g><g><g><path d="M331.67559,226.1935s1.9159-1.6855,2.2172-1.577,18.50121,.5586,26.08621,12.0593c0,0,11.59939-9.3841,21.36419-12.8293l4.4484,1.3286-2.2785,34.319-22.7844,11.4669h-5.6221l-17.7048-8.1373-5.7262-36.6302Z" style="fill:#263238;"></path><path d="M331.67559,226.1935s1.9159-1.6855,2.2172-1.577,18.50121,.5586,26.08621,12.0593c0,0,11.59939-9.3841,21.36419-12.8293l4.4484,1.3286-2.2785,34.319-22.7844,11.4669h-5.6221l-17.7048-8.1373-5.7262-36.6302Z" style="fill:#fff; opacity:.8;"></path></g><path d="M329.57469,225.9355c-.4629-.0491,1.3562,38.6459,1.3562,38.6459l27.0276,9.2404h4.412s12.9419-9.4809,25.1484-10.7664l.7354-39.2089s-10.3726,1.9032-26.124,13.8753h-4.1718s-8.6769-9.6973-28.3838-11.7863Z" style="fill:#263238;"></path><path d="M357.95849,273.8218s-.2942-36.1,0-36.1h4.1718v36.1h-4.1718Z"></path></g><path d="M409.64529,278.2717l-15.2909-20.1471s3.131-9.0226,3.0747-11.5635c-.0562-2.5409-7.0157-8.4545-7.0157-8.4545,0,0-2.5971,1.709,.4385,4.722l1.6809,3.4235-3.2043-2.2486s-7.2236-1.5008-7.0156-.0673,.9894,1.945,.9894,1.945c0,0-4.0586,2.7434-1.2619,4.3932,0,0-4.2843-.4591-3.1188,1.2279,1.16541,1.6869,5.938,2.2771,5.938,2.2771,0,0-2.90059,3.9238-.26959,7.0943,2.63089,3.1704,9.29269,21.1984,11.96859,23.8854s4.7896,5.1267,8.5728,3.7718c3.7832-1.3548,7.8317-5.8877,4.5139-10.2592Z" style="fill:#b97964;"></path><path d="M299.92519,262.6444l22.1097-12.2832s.7677-9.5194,1.8425-11.8225,9.8265-4.9133,9.8265-4.9133c0,0,1.6889,2.6102-2.3031,4.1456l-2.9172,2.4566,3.8385-.7677s7.2163,1.5354,6.4486,2.7637c-.76769,1.2283-1.6889,1.3819-1.6889,1.3819,0,0,2.61021,4.1455-.6142,4.5294,0,0,4.10641,1.3051,2.3603,2.3799-1.7461,1.0747-6.3523-.3071-6.3523-.3071,0,0,1.0748,4.7597-2.6102,6.6022-3.6849,1.8424-17.0429,15.661-20.5743,17.0429-3.5314,1.3818-6.4486,2.7637-9.3659,0-2.91719-2.7638-4.7974-8.5432,0-11.2084Z" style="fill:#b97964;"></path></g></g></g><g id="freepik--Character_1--inject-37"><g><g><polygon points="209.92959 421.8911 218.89239 415.0871 205.70219 388.658 191.9407 398.8721 209.92959 421.8911" style="fill:#ebb373;"></polygon><g><path d="M216.72289,410.3565l-2.93389,2.7164c-.66391,.6147-.96711,1.5191-.86351,2.4179,.4473,3.8771-1.6328,4.181-5.4843,3.7126-1.2961,.9468-.3681,2.5811-.1295,3.0302l5.1936,10.0091c.4263,.8427,1.455,1.1801,2.29771,.7538,.14969-.0758,.28769-.1733,.40919-.2893,3.563-3.2988,5.2487-4.8596,9.6833-8.9654l13.5621-12.5567c3.6971-3.423,1.0136-7.8582-.8284-6.793-8.2493,4.8271-14.9643,7.3016-18.9255,7.2692-.7152,.0147-.5539-.6196-1.9808-1.3048Z" style="fill:#263238;"></path><path d="M225.19,406.7304c.10309-.508-.04111-1.0346-.38891-1.419-.1628-.228-.4418-.3428-.71809-.2956-1.52261,.2001-3.60351,5.311-3.82921,5.8934-.0304,.0587-.0331,.1281-.0073,.1892,.0481,.1126,.1783,.1652,.2911,.1173,1.0991-.6213,2.1303-1.3555,3.077-2.1908,.7562-.5774,1.3083-1.3813,1.57541-2.2945Zm-1.07971-1.224c.1176-.0229,.237,.0295,.29971,.1317,.23869,.2887,.34209,.6661,.28339,1.0361-.2568,1.3941-2.5167,2.9882-3.785,3.7891,.9021-2.0804,2.3662-4.8412,3.2019-4.9569Z" style="fill:#263238;"></path><path d="M220.69759,411.1387c.6759-1.4795,1.3081-5.4269,.2968-6.2694-.2053-.1834-.5708-.2899-1.1308,.1042-2.2242,1.6324,.2569,6.0413,.3989,6.1947,.0374,.0801,.1188,.1305,.2074,.128,.0478-.0236,.0877-.0606,.115-.1065l.1127-.051Zm-.6262-5.8062c.4089-.3075,.5331-.1734,.5774-.1255,.6463,.4867,.3624,3.5422-.2495,5.283-.53129-1.0735-1.7447-3.8636-.471-5.0429l.1431-.1146Z" style="fill:#263238;"></path><path d="M219.8501,414.89648c-.11768,0-.22266-.08398-.24512-.2041-.27051-1.44238,.125-2.98145,1.05762-4.11719,.08887-.10547,.24609-.12109,.35205-.03418,.10693,.08789,.12207,.24512,.03467,.35254-.84033,1.02148-1.19629,2.40723-.95312,3.70703,.02539,.13574-.06396,.2666-.19971,.29199-.01562,.00293-.03076,.00391-.04639,.00391Z" style="fill:#263238;"></path><path d="M222.94434,414.58105c-.11768,0-.22266-.08398-.24512-.2041-.27051-1.44238,.125-2.98145,1.05762-4.11719,.08887-.10547,.24658-.12109,.35205-.03418,.10693,.08789,.12207,.24512,.03467,.35254-.84033,1.02148-1.19629,2.40723-.95312,3.70703,.02539,.13574-.06396,.2666-.19971,.29199-.01562,.00293-.03076,.00391-.04639,.00391Z" style="fill:#263238;"></path><path d="M226.28125,413.63477c-.11768,0-.22266-.08398-.24512-.2041-.27051-1.44336,.12549-2.98242,1.05859-4.11719,.08789-.10645,.24512-.12109,.35156-.03418,.10693,.08789,.12207,.24512,.03418,.35254-.84033,1.02148-1.19629,2.40723-.95312,3.70703,.02539,.13574-.06396,.2666-.19971,.29199-.01562,.00293-.03076,.00391-.04639,.00391Z" style="fill:#263238;"></path></g><polygon points="212.67349 402.6263 214.291 405.8675 203.24429 413.3363 201.48269 411.0822 212.67349 402.6263" style="opacity:.3;"></polygon></g><g><g><rect x="119.5758" y="356.3016" width="9.7533" height="83.7814" style="fill:#263238;"></rect><rect x="119.5758" y="356.3016" width="9.7533" height="83.7814" style="fill:#fff; opacity:.1;"></rect><path d="M103.6213,355.7865c1.0212,.7659,14.2422,16.0108,14.2422,16.0108h12.9969l15.5326-16.1861-42.7717,.1753Z" style="fill:#263238;"></path><path d="M103.6213,355.7865c1.0212,.7659,14.2422,16.0108,14.2422,16.0108h12.9969l15.5326-16.1861-42.7717,.1753Z" style="fill:#fff; opacity:.2;"></path><g><path d="M94.6194,435.9037h59.6662c2.24403,0,4.0659,1.82187,4.0659,4.0659v.1134H90.5535v-.1134c0-2.24403,1.82187-4.0659,4.0659-4.0659Z" style="fill:#263238;"></path><path d="M94.6194,435.9037h59.6662c2.24403,0,4.0659,1.82187,4.0659,4.0659v.1134H90.5535v-.1134c0-2.24403,1.82187-4.0659,4.0659-4.0659Z" style="fill:#fff; opacity:.1;"></path></g></g><g><path d="M187.895,311.8251c-2.421-14.6243-6.178-28.9812-11.196-42.7848-4.1502-11.4165-9.4073-22.8042-18.0248-30.6432-7.0315-6.3963-21.5866-12.0993-32.1101-10.9265-10.5235-1.1728-25.0786,4.5302-32.11,10.9265-8.6175,7.839-13.8746,19.2267-18.0248,30.6432-5.0181,13.8036-8.775,28.1605-11.196,42.7848-1.5481,9.3512-2.3872,19.6931,2.2432,27.7208,3.8609,6.6934,10.8103,10.4225,17.6814,12.8276,13.3304,4.6661,27.3432,6.4686,41.4062,6.0723,14.063,.3963,28.0759-1.4062,41.4063-6.0723,6.8712-2.4051,13.8206-6.1342,17.6814-12.8276,4.6303-8.0277,3.7913-18.3696,2.2432-27.7208Z" style="fill:#263238;"></path><g style="opacity:.5;"><path d="M187.895,311.8251c-2.421-14.6243-6.178-28.9812-11.196-42.7848-4.1502-11.4165-9.4073-22.8042-18.0248-30.6432-7.0315-6.3963-21.5866-12.0993-32.1101-10.9265-10.5235-1.1728-25.0786,4.5302-32.11,10.9265-8.6175,7.839-13.8746,19.2267-18.0248,30.6432-5.0181,13.8036-8.775,28.1605-11.196,42.7848-1.5481,9.3512-2.3872,19.6931,2.2432,27.7208,3.8609,6.6934,10.8103,10.4225,17.6814,12.8276,13.3304,4.6661,27.3432,6.4686,41.4062,6.0723,14.063,.3963,28.0759-1.4062,41.4063-6.0723,6.8712-2.4051,13.8206-6.1342,17.6814-12.8276,4.6303-8.0277,3.7913-18.3696,2.2432-27.7208Z" style="fill:#fff;"></path></g><g style="opacity:.5;"><path d="M125.5051,319.2604c16.027,.5749,31.6061,.3298,47.6331,.9047,2.7741,.0996,5.8027,.2984,7.849,2.1739,2.0185,1.85,2.5059,4.96,1.7826,7.6007s-2.468,4.8825-4.3752,6.8469c-5.8261,6.0009-13.4602,10.0403-21.4595,12.4826-7.9994,2.4423-16.3875,3.36-24.7416,3.7637-16.2048,.7832-33.0947-.495-47.334-8.2699-2.9078-1.5877-5.7177-3.4698-7.8323-6.0203-2.1147-2.5504-5.3827-8.7675-5.0799-12.0667,0,0-1.7852-8.6439,7.1411-8.2357,8.9263,.4081,46.4167,.8201,46.4167,.8201Z" style="fill:#fff;"></path></g></g></g><g><path d="M144.7051,196.1572s11.1273-20.2759-5.2345-26.081c0,0,3.0722-1.8854-.8151-4.1213-12.4432-7.1568-20.2169-4.7894-25.9786-2.2814-9.9855,4.3466-12.9382,21.4913-5.92,32.4837,3.4577,5.4155,6.2767,7.1275,9.6686,8.8651s6.6557-1.8911,6.6557-1.8911l21.6239-6.974Z" style="fill:#263238;"></path><g><path d="M119.1036,199.9541l10.6909,10.7895,2.9997,1.8011c-.6713,1.5909-1.2455,3.229-1.4912,4.8156-.4684,2.7987,.564,3.3098,3.1617,5.3775l-10.6074,6.3409c-5.3872-4.6425-8.8013-5.7244-8.8013-5.7244,5.6314-3.9106,5.2705-16.7847,4.0476-23.4002Z" style="fill:#ebb373;"></path><path d="M131.2161,217.975c-2.9404-1.7456-6.1666-4.773-5.7798-8.2322,.1725-1.4563,.4864-2.8366,.8353-3.7212l5.9724,7.9071c-.4903,1.2746-.6693,2.117-1.0279,4.0463Z" style="opacity:.2;"></path><path d="M117.0325,187.7898c1.0065,10.9847,1.2005,15.643,6.869,21.4029,8.5264,8.6638,21.6438,5.7494,23.9022-5.1389,2.0327-9.7997,.0455-26.1169-10.7384-30.7334-10.6246-4.5483-21.0388,3.4846-20.0328,14.4694Z" style="fill:#ebb373;"></path><path d="M131.2604,191.3659c.0539,1.1622,.6834,2.1164,1.4059,2.1314,.7223,.0149,1.264-.9151,1.2098-2.0771-.0539-1.1621-.6833-2.1165-1.4056-2.1315s-1.264,.9148-1.2101,2.0772Z" style="fill:#263238;"></path><path d="M142.0931,191.333c.0549,1.1264,.683,2.0515,1.4032,2.0666,.7201,.0148,1.2596-.8858,1.205-2.0124-.0547-1.1259-.6828-2.0513-1.4028-2.0661-.7204-.0154-1.2599,.8858-1.2054,2.0119Z" style="fill:#263238;"></path><path d="M128.9683,187.3177c.14,.0156,.2819-.0253,.3904-.1254,1.6923-1.5669,3.5979-1.0166,3.6198-1.0102,.2825,.0822,.5683-.0775,.6329-.3657,.0639-.2877-.1153-.59-.4015-.6768-.0996-.0293-2.491-.7224-4.5907,1.2231-.2092,.1937-.2134,.537-.0096,.7663,.0987,.1101,.2276,.1742,.3587,.1887Z" style="fill:#263238;"></path><path d="M145.7366,185.8206c.1105-.037,.2027-.1194,.2512-.2398,.1-.249-.0223-.565-.2725-.7056-2.5108-1.4113-4.372-.3384-4.4502-.2909-.2211,.1312-.2742,.4431-.1188,.697,.1548,.2536,.4594,.3525,.6803,.2226,.0721-.0432,1.5294-.8509,3.5256,.2718,.1294,.0726,.2673,.0844,.3844,.0449Z" style="fill:#263238;"></path><path d="M139.1464,190.7974s1.7185,4.112,3.6573,6.6751c.3388,.4481,.129,1.1018-.398,1.2957-1.3565,.4993-2.944,.0476-2.944,.0476l-.3153-8.0184Z" style="fill:#e4873e;"></path><path d="M132.057,189.3365l2.521-.5956s-1.3788,1.8802-2.521,.5956Z" style="fill:#263238;"></path><path d="M143.0389,189.3468l2.5211-.5955s-1.3787,1.8799-2.5211,.5955Z" style="fill:#263238;"></path><path d="M137.17,201.0159c-.7419,1.3441-1.3851,2.7403-1.9242,4.1778l-.8038-.1714c-3.5848-.7643-4.9949-2.3064-5.4825-3.7824-.2125-.7229-.2532-1.4857-.1186-2.2271,.0653-.428,.1895-.8449,.3689-1.2389,1.6737,1.555,4.9553,2.5171,6.7346,2.9652,.7511,.1976,1.2256,.2768,1.2256,.2768Z"></path><path d="M135.9444,200.7391l-.5933,1.2125c-3.3868-.7249-5.667-1.6868-6.5104-2.9388,.0655-.428,.1897-.8449,.3691-1.2389,1.6737,1.5551,4.9553,2.4645,6.7346,2.9652Z" style="fill:#fff;"></path><path d="M134.4418,205.0223c-3.5847-.7643-4.9947-2.3063-5.4823-3.7823,1.361,.3195,2.655,.8773,3.8218,1.6473,.7669,.5164,1.3488,1.2644,1.6605,2.135Z" style="fill:#de5753;"></path></g><path d="M146.0742,182.1508s-3.9506-7.4754-5.3596-6.9746c-9.5265,3.3856-17.1858,20.0521-17.1858,20.0521-2.6393-4.4309-6.0137-5.4327-7.4178-4.8079,0,0-5.5991-6.2646-3.9684-14.1849,1.6306-7.9203,10.6132-8.9686,14.3334-9.551,3.7202-.5824,17.7179,5.3519,19.5982,15.4663Z" style="fill:#263238;"></path><path d="M104.5728,178.8482s13.4666,13.634,22.0913,9.98c0,0-3.4415-.3447-11.5457-3.982-5.1801-2.3249-10.5456-5.998-10.5456-5.998Z" style="opacity:.3;"></path><g><path d="M114.1296,196.1098c.93,2.4277,2.7916,4.1544,4.6252,4.9351,2.7582,1.1741,4.9711-3.209,4.4457-6.2411-.4732-2.73-3.0243-4.8904-5.9086-4.7676-2.8413,.1213-4.2253,3.2977-3.1623,6.0736Z" style="fill:#ebb373;"></path><path d="M119.9834,196.69238l-.02295-.00098c-.1377-.0127-.23877-.13379-.22656-.27148,.08838-.97852-.22119-1.97314-.84961-2.72852-.63623-.76562-1.89844-1.27344-2.52734-1.33203-.1377-.0127-.23877-.13477-.22607-.27197,.01318-.1377,.14014-.23438,.27197-.22607,.73193,.06836,2.13477,.63086,2.86621,1.51074,.71191,.85596,1.06299,1.9834,.96289,3.09277-.01172,.12988-.12061,.22754-.24854,.22754Z" style="opacity:.2;"></path></g></g><g><polygon points="117.2123 426.3639 129.0725 428.8018 141.1308 399.3955 123.1093 395.4873 117.2123 426.3639" style="fill:#ebb373;"></polygon><g><path d="M131.3664,423.6934l-4.2784-.4515c-.9682-.1021-1.9154,.293-2.5699,1.0138-2.823,3.1091-4.5428,1.6398-6.8922-1.8111-1.685-.379-2.3511,1.5305-2.5457,2.0419l-4.4262,11.2972c-.3804,.9423,.0751,2.0144,1.0174,2.3948,.1675,.0676,.3442,.1102,.5243,.1265,5.1957,.5483,7.654,.8077,14.1208,1.4901l19.7775,2.087c5.3914,.5689,7.082-4.7465,4.9143-5.4836-9.7537-3.2607-16.5151-6.9456-19.2953-10.1766-.5185-.5688,.1094-.8875-.3466-2.5285Z" style="fill:#263238;"></path><path d="M140.3017,427.9813c.4844-.2763,.8087-.7662,.8737-1.3202,.0693-.2934-.0354-.6007-.2694-.791-1.2408-1.0912-6.854,.8445-7.4856,1.0743-.0692,.017-.1272,.064-.1584,.1282-.0571,.1187-.0074,.2614,.1112,.3188,1.2818,.4499,2.607,.7648,3.9542,.9398,1.0033,.2033,2.0456,.0808,2.9743-.3499Zm.2263-1.7415c.1019,.079,.144,.2128,.1058,.336-.0648,.3979-.2972,.749-.6384,.9636-1.311,.7797-4.2029,.0789-5.7502-.3808,2.3239-.7433,5.597-1.5136,6.2828-.9188Z" style="fill:#263238;"></path><path d="M133.5489,427.4665c1.6771-.5009,5.3217-2.7856,5.2875-4.2015,.003-.2961-.1696-.6676-.8856-.8419-2.8977-.6447-4.7104,4.4882-4.734,4.7118-.0384,.0871-.0215,.1888,.0433,.2587,.053,.022,.1112,.0281,.1677,.0177l.1211,.0552Zm4.2585-4.6208c.5387,.1134,.5181,.3089,.5107,.3788,.0638,.8681-2.6118,2.803-4.4552,3.5408,.493-1.1908,1.8928-4.1502,3.7503-3.9542l.1942,.0346Z" style="fill:#263238;"></path><path d="M130.10791,429.51562c-.0542,0-.10889-.01758-.15479-.05371-.1084-.08496-.12695-.24219-.0415-.35059,.97412-1.2373,2.49512-2.00391,4.06885-2.05273h.00781c.13477,0,.24561,.10645,.25,.24219,.00391,.1377-.10449,.25391-.24219,.25781-1.42822,.04395-2.80811,.73926-3.69189,1.86133-.04932,.06348-.12256,.0957-.19629,.0957Z" style="fill:#263238;"></path><path d="M132.55566,431.79785c-.0542,0-.10889-.01758-.15479-.05371-.1084-.08496-.12695-.24219-.0415-.35059,.97461-1.23828,2.49609-2.00488,4.06982-2.05273,.14111,.00195,.25293,.10547,.25732,.24219,.00391,.13867-.10449,.25391-.24268,.25781-1.42725,.04297-2.80713,.73828-3.69189,1.86133-.04932,.06348-.12256,.0957-.19629,.0957Z" style="fill:#263238;"></path><path d="M135.68652,433.83008c-.0542,0-.10889-.01758-.15479-.05371-.1084-.08496-.12695-.24219-.0415-.35059,.97412-1.23828,2.49512-2.00488,4.06934-2.05273,.13916,0,.25293,.10547,.25732,.24219,.00391,.13867-.10449,.25391-.24268,.25781-1.42773,.04297-2.80762,.73828-3.69141,1.86133-.04932,.0625-.12256,.0957-.19629,.0957Z" style="fill:#263238;"></path></g><polygon points="134.7577 414.9373 133.2789 418.5436 119.4039 414.889 119.9813 411.8654 134.7577 414.9373" style="opacity:.3;"></polygon></g><g><path d="M96.9567,287.9786c0,.678-8.9309,7.513-11.8701,18.2279-2.3743,8.6556,.6175,21.3438,4.0404,23.6713,9.3418,9.5203,25.861,6.0219,39.9163,1.212l15.5427-6.4208s-.3064,15.0137,9.8049,31.2531c10.1114,16.2394,45.1386,57.8086,45.1386,57.8086l15.6646-10.3882s-47.75609-102.7361-53.4706-107.563c-5.1567-4.3557-14.8375-3.4596-14.8375-3.4596l.4368-3.6534c-13.9737-1.2988-50.3661-.6879-50.3661-.6879Z" style="fill:#263238;"></path><path d="M132.0313,329.8554c.9193,.9193,.9261,5.3525,.9261,5.3525l-15.4036,74.0549,19.4848,4.4679s12.5008-43.0167,17.9258-56.907l2.8151,4.0736c.7866-2.0228,5.0821-19.0301,5.6545-22.5062,.2092-1.2708,.3445-1.6484,.4368-2.5618,.2769-2.7414,.9531-5.5395,.2383-8.3591-2.3274-9.1803-10.967-15.2461-19.3641-10.8663-5.6059,2.7814-13.0246,6.7914-12.7137,13.2515Z" style="opacity:.3;"></path><path d="M132.2781,329.6977c.9193,.9192-.6665,9.3722-.6665,9.3722l-15.4036,74.055,19.4848,4.4679s17.367-56.4618,21.6567-67.4923c1.5578-4.006,4.275-12.5881,4.3721-18.382,.1588-9.4694-9.9253-15.6324-18.3224-11.2525-4.6515,2.2831-8.2471,5.4541-11.1211,9.2317Z" style="fill:#263238;"></path></g><path d="M158.2281,267.6612s-2.0012,11.698-3.8358,18.8553c-.6426,2.5066-2.0231,5.5028-5.7125,5.9405-3.0557,.3625-17.1267-1.0332-17.1267-1.0332l-1.0843-8.986,12.7516-4.3987,2.8597-11.8378,12.148,1.4599Z" style="fill:#ebb373;"></path><g><path d="M117.3611,220.7809c-1.0342,0-14.6743,2.2395-15.5253,3.2062-4.7465,5.3923-4.6782,63.9915-4.6782,63.9915,0,0,41.6065,2.9281,42.3822,3.4452,.7756,.5171,9.14-32.6108,9.14-41.66s-6.2557-26.1328-6.2557-26.1328l-10.4927-3.201-6.7068,4.8631-7.8635-4.5122Z" style="fill:#263238;"></path><path d="M101.8358,223.9871s-8.9137,1.8555-12.4954,11.8716-5.1055,31.9146-5.1055,31.9146l21.5314,2.4594-3.9305-46.2456Z" style="fill:#263238;"></path><path d="M142.4241,223.631s9.5985,2.1161,11.8929,12.2768c2.2943,10.1607,4.8433,31.8655,4.8433,31.8655l-21.9903-2.6427,5.2541-41.4996Z" style="fill:#263238;"></path><path d="M149.6842,266.6345s1.5096-14.6654-.4665-20.6053c-1.976-5.9398-5.9973-11.9316-5.9973-11.9316,0,0,5.1469,8.9581,4.9447,17.1258-.2021,8.1677-2.085,14.9779-2.085,14.9779l3.6041,.4332Z" style="opacity:.3;"></path><path d="M99.958,269.5692s.3072,.0179,.7701,.039c1.2218,.0556,3.5282,.1331,4.1308-.039,.8308-.2373-.412-25.0587,0-24.9213,.412,.1373,4.2572,25.1316,2.7466,26.7796-1.5107,1.6479-7.6163,4.1242-7.6163,4.1242" style="opacity:.3;"></path></g><g><path d="M86.0084,267.9758s-.4109,13.7628-.0061,15.9697c.7136,3.8896,3.6697,6.5107,8.3492,6.871l45.96,.6073-1.3458-8.1874-38.9765-7.6847-.0312-5.9825-13.9496-1.5934Z" style="fill:#ebb373;"></path><path d="M160.2901,294.4296c-.2407-1.1186-3.0418-6.1913-4.8096-7.3443-1.7677-1.1531-10.6365-2.5856-12.7389-3.197-.6319-.1839-4.8521-.931-4.8521-.931l-4.1603,6.1614,3.8901,1.1698c.0625,.1369,.6497,.4276,1.3391,.7899,1.4381,.7558,3.0411,1.1462,4.6654,1.1138l2.0247-.0404c.6663-.3138,6.6742,1.0232,8.0602,2.1677,1.3859,1.1443,3.827,3.2992,4.961,2.5911,1.1341-.7082,.2215-1.88,.2215-1.88,0,0,1.6396,.5176,1.3989-.601Z" style="fill:#ebb373;"></path></g><path d="M109.8703,277.4999c-.567,.0285,29.0954,5.7365,29.0954,5.7365l15.4266,3.2801,.6229-2.571s-36.7284-6.8683-45.1449-6.4456Z" style="opacity:.3;"></path></g></g></svg>
